<?xml version="1.0" standalone="no"?>
<!DOCTYPE svg PUBLIC "-//W3C//DTD SVG 20010904//EN"
 "http://www.w3.org/TR/2001/REC-SVG-20010904/DTD/svg10.dtd">
<svg version="1.0" xmlns="http://www.w3.org/2000/svg"
 width="360.000000pt" height="360.000000pt" viewBox="0 0 360.000000 360.000000"
 preserveAspectRatio="xMidYMid meet">

<g transform="translate(0.000000,360.000000) scale(0.100000,-0.100000)"
fill="#000000" stroke="none">
<path d="M560 2858 c-20 -14 -40 -38 -46 -57 -15 -46 -11 -1210 5 -1239 6 -11
23 -30 37 -41 25 -20 38 -21 278 -21 185 1 257 4 274 14 35 19 62 66 62 109 0
37 1 38 33 35 l32 -3 3 -147 3 -148 -321 0 c-351 0 -376 -3 -403 -57 -8 -15
-40 -110 -71 -211 -43 -139 -56 -198 -56 -245 0 -82 7 -102 36 -116 18 -8 322
-11 1083 -11 1225 0 1104 -12 1114 106 5 73 4 77 -81 343 -39 119 -52 148 -75
165 -28 21 -40 21 -613 24 l-584 2 0 151 c0 116 3 150 13 147 8 -3 13 -37 15
-110 3 -101 4 -105 28 -117 18 -8 222 -11 733 -11 l709 0 16 -25 c20 -30 20
-45 2 -45 -24 0 -84 -77 -92 -116 -15 -79 2 -194 43 -294 52 -125 60 -137 111
-161 37 -19 57 -21 157 -18 96 4 118 7 142 25 47 35 63 78 63 177 0 100 -2
105 -108 262 -78 116 -105 135 -198 135 -60 0 -60 0 -92 45 l-31 45 -723 2
-723 3 -5 103 c-4 88 -8 106 -24 118 -11 8 -26 14 -33 14 -7 0 -13 7 -13 15 0
18 -31 35 -64 35 -16 0 -26 6 -26 15 0 12 17 15 94 15 106 0 126 -5 126 -30 0
-9 8 -24 18 -33 16 -15 48 -17 240 -17 l222 0 0 -34 0 -35 -52 6 c-45 4 -57 2
-75 -16 -28 -26 -31 -78 -5 -97 13 -11 90 -13 354 -14 l338 0 16 26 c36 54
-13 107 -93 102 l-43 -3 0 112 c0 61 -3 118 -6 127 -5 14 17 16 206 16 198 0
215 1 250 21 21 12 47 38 59 59 20 37 21 49 21 420 0 422 0 424 -63 471 l-32
24 -657 0 c-652 0 -657 0 -685 -21 -15 -12 -37 -36 -48 -55 -19 -32 -20 -55
-23 -414 -2 -379 -2 -380 21 -420 12 -22 38 -50 56 -62 33 -22 42 -23 247 -23
l214 0 0 -80 0 -80 -222 2 -222 3 -6 25 c-9 40 -44 51 -153 48 l-97 -3 0 503
0 502 -34 38 -34 37 -254 3 c-251 3 -254 3 -288 -20z m2206 -52 l34 -34 0
-392 0 -392 -34 -34 -34 -34 -641 0 c-579 0 -644 2 -667 16 -53 35 -54 44 -54
438 0 226 4 375 10 393 6 15 23 38 38 50 l27 23 644 0 643 0 34 -34z m-1699
-4 c6 -4 -66 -6 -160 -4 -279 4 -307 8 -72 10 121 1 225 -2 232 -6z m37 -28
c3 -8 2 -12 -4 -9 -6 3 -10 10 -10 16 0 14 7 11 14 -7z m-531 -14 c-3 -12 -8
-19 -11 -16 -5 6 5 36 12 36 2 0 2 -9 -1 -20z m482 -10 c3 -5 1 -10 -4 -10 -6
0 -11 5 -11 10 0 6 2 10 4 10 3 0 8 -4 11 -10z m50 -77 c-9 -15 -13 -19 -9 -8
4 11 10 36 13 55 5 32 6 33 9 8 2 -15 -4 -40 -13 -55z m-508 -22 c10 -6 14
-11 9 -11 -16 0 -46 32 -45 49 0 11 3 9 9 -6 5 -12 17 -26 27 -32z m473 -11
c-9 -6 -106 -9 -235 -8 l-220 2 225 6 c124 3 230 7 235 8 6 1 3 -3 -5 -8z
m-206 -316 c16 -16 9 -45 -14 -59 -15 -9 -50 14 -50 33 0 38 37 53 64 26z
m371 -624 c4 -6 -8 -10 -29 -10 -20 0 -36 5 -36 10 0 6 13 10 29 10 17 0 33
-4 36 -10z"/>
</g>
</svg>
